<?xml version="1.0" standalone="no"?>
<!DOCTYPE svg PUBLIC "-//W3C//DTD SVG 20010904//EN"
 "http://www.w3.org/TR/2001/REC-SVG-20010904/DTD/svg10.dtd">
<svg version="1.0" xmlns="http://www.w3.org/2000/svg"
 width="820.000000pt" height="346.000000pt" viewBox="0 0 820.000000 346.000000"
 preserveAspectRatio="xMidYMid meet">

<g transform="translate(0.000000,346.000000) scale(0.100000,-0.100000)"
fill="#000000" stroke="none">
<path d="M3622 2685 c-64 -88 -113 -142 -218 -236 l-136 -123 -64 -128 c-35
-70 -69 -128 -74 -128 -36 0 -223 66 -289 102 l-79 43 -92 -98 c-121 -127
-125 -133 -141 -195 -11 -46 -24 -64 -98 -137 l-86 -85 -75 0 c-60 0 -91 6
-154 31 -60 23 -88 29 -115 24 -37 -7 -141 -50 -141 -59 0 -3 24 6 53 19 28
12 69 26 89 29 33 6 39 4 52 -21 7 -15 19 -47 25 -70 10 -36 16 -43 36 -43 26
0 61 -31 71 -62 5 -17 104 -91 111 -84 2 2 -17 50 -42 106 -25 56 -45 106 -45
111 0 5 32 9 71 9 l71 0 82 78 c73 68 85 84 102 138 16 53 33 76 123 173 57
61 108 111 112 111 4 0 33 -48 65 -106 56 -100 62 -108 113 -133 47 -22 57
-32 70 -69 11 -30 33 -58 69 -89 l53 -45 23 21 c12 11 26 21 30 21 4 0 16 -20
27 -45 11 -25 21 -45 22 -45 1 0 0 37 -3 83 -4 72 -9 89 -39 135 -18 29 -39
71 -46 95 -13 42 -13 42 54 171 l66 129 135 113 c114 96 148 132 216 227 44
61 85 110 90 108 5 -3 30 -63 57 -135 41 -112 53 -136 87 -166 34 -29 40 -41
40 -72 0 -65 54 -288 69 -288 4 0 22 4 40 10 31 9 40 6 91 -27 56 -36 57 -37
88 -133 18 -53 32 -99 32 -103 0 -5 -20 6 -44 23 -25 16 -47 30 -50 30 -10 0
-6 -80 4 -101 6 -10 15 -44 21 -75 6 -30 19 -76 30 -102 17 -39 46 -156 85
-346 l6 -29 25 32 c13 17 28 31 32 31 7 0 70 -95 141 -214 l24 -40 9 27 c6 20
3 44 -12 89 -31 92 -27 135 11 101 22 -20 22 -22 -2 55 -28 88 -26 92 21 47
l41 -40 -7 52 c-7 50 -6 53 19 63 14 5 26 16 26 24 0 39 -54 196 -81 235 -27
38 -34 65 -55 195 l-25 151 33 28 c18 16 45 37 59 48 l27 19 72 -110 c44 -68
81 -139 97 -185 l25 -75 94 0 94 0 0 -67 c0 -63 4 -74 52 -158 l51 -90 7 -193
c5 -106 9 -194 11 -196 2 -1 27 -19 56 -39 l52 -36 5 42 c3 23 7 53 8 67 2 14
21 -45 43 -130 38 -152 40 -156 87 -204 27 -27 51 -46 54 -43 11 11 -17 141
-48 225 -30 80 -31 86 -19 150 6 37 12 78 14 92 2 24 9 28 76 47 10 3 12 17 8
63 l-5 59 62 25 c33 14 104 31 156 37 l94 12 176 132 c181 137 221 174 330
312 36 45 68 82 71 83 3 0 23 -53 43 -117 52 -165 49 -160 94 -168 28 -4 51
-19 83 -51 27 -28 75 -60 125 -83 l81 -38 42 -91 43 -90 99 -12 c80 -10 119
-21 211 -61 l113 -50 193 -15 c187 -15 196 -16 309 -59 64 -25 118 -43 120
-41 2 1 -53 33 -122 70 l-124 67 -180 24 c-142 19 -190 29 -231 50 -29 15 -99
42 -156 60 -88 28 -114 42 -167 87 -123 104 -228 208 -286 281 -50 63 -248
239 -285 253 -7 3 -55 -47 -113 -118 -125 -153 -134 -161 -321 -300 l-153
-115 -102 -11 -102 -12 -120 49 -120 49 -103 113 c-56 63 -139 159 -185 215
-62 77 -98 111 -147 141 -36 22 -111 68 -167 103 l-103 63 -54 -42 c-31 -22
-58 -41 -62 -41 -8 0 -86 57 -189 137 -70 55 -88 76 -140 166 -54 92 -75 116
-215 247 -85 80 -162 151 -170 157 -14 10 -28 -5 -98 -102z"/>
<path d="M3577 2398 c-43 -19 -48 -24 -54 -62 -6 -44 -48 -91 -134 -152 -39
-27 -44 -34 -41 -65 2 -30 35 -79 52 -79 4 0 19 18 34 40 16 25 44 49 71 62
39 19 47 29 70 87 17 43 43 83 73 113 29 30 43 51 37 57 -20 20 -61 19 -108
-1z"/>
<path d="M3719 2214 c-12 -25 -36 -71 -55 -103 -19 -31 -34 -59 -34 -62 0 -4
10 -9 22 -12 20 -6 21 -8 6 -24 -37 -43 -33 -93 8 -85 13 2 47 -5 75 -18 28
-12 53 -19 56 -16 9 9 -25 54 -46 61 -44 14 -53 129 -16 199 26 48 33 106 14
106 -5 0 -19 -21 -30 -46z"/>
<path d="M2728 2006 c-49 -28 -79 -95 -76 -168 1 -29 -2 -61 -6 -72 -9 -17 -8
-17 23 -2 20 11 37 31 48 58 15 39 17 40 26 20 24 -54 67 4 47 63 -6 18 -9 52
-8 75 2 24 -1 44 -7 45 -5 2 -27 -7 -47 -19z"/>
<path d="M3437 1972 c-25 -17 -34 -29 -27 -36 6 -6 17 -6 32 2 13 6 37 13 53
14 22 2 31 9 33 26 3 18 -1 22 -25 21 -15 -1 -45 -13 -66 -27z"/>
<path d="M970 1924 c-65 -35 -79 -49 -268 -280 -41 -50 -75 -75 -193 -146 -79
-47 -151 -88 -159 -91 -13 -5 -13 -6 0 -6 8 -1 83 39 167 87 144 83 155 91
214 167 110 141 187 217 252 247 32 15 61 28 63 28 2 0 4 -9 4 -20 0 -13 18
-33 49 -55 l49 -36 -5 -53 c-5 -48 -3 -58 22 -91 16 -20 47 -49 70 -65 30 -21
45 -40 54 -70 7 -24 25 -54 39 -69 l27 -26 3 28 c3 27 16 35 27 17 11 -18 25
-10 25 15 0 22 4 25 35 25 31 0 35 3 41 35 3 19 8 35 11 35 4 0 65 -30 71 -35
4 -3 -35 -111 -49 -133 -12 -19 -10 -25 19 -61 39 -49 49 -72 57 -136 l7 -50
15 30 c21 41 19 40 47 21 14 -9 28 -16 31 -16 3 0 5 35 5 78 l0 77 24 -30 23
-29 17 33 c17 31 18 32 39 17 52 -37 104 -65 137 -71 l35 -7 -55 56 c-37 38
-49 56 -37 56 22 0 21 5 -2 44 -10 17 -24 48 -31 69 -9 30 -23 44 -67 69 l-55
31 56 32 c31 17 59 35 63 40 5 5 -23 -8 -60 -29 l-68 -37 -57 31 c-31 18 -88
56 -127 85 -68 51 -72 53 -151 58 -92 6 -142 27 -266 113 -43 30 -79 54 -80
54 -2 0 -32 -16 -68 -36z"/>
<path d="M3508 1870 c-15 -12 -32 -36 -38 -55 -10 -29 -16 -35 -40 -35 -31 0
-40 -18 -40 -81 0 -28 -5 -38 -25 -47 -25 -12 -32 -41 -19 -76 5 -13 12 -8 34
21 41 57 127 133 149 133 11 0 28 3 38 6 10 4 -2 -13 -26 -39 -36 -38 -42 -50
-37 -72 l7 -26 33 20 c18 12 47 21 64 21 27 0 35 6 52 40 14 27 32 45 58 55
68 29 100 75 51 75 -11 0 -36 11 -57 25 -21 14 -58 29 -82 34 -25 6 -56 13
-70 16 -16 3 -34 -2 -52 -15z"/>
<path d="M929 1751 c-61 -38 -66 -48 -28 -56 26 -6 36 -2 56 18 15 15 23 33
21 46 -3 22 -3 22 -49 -8z"/>
<path d="M2676 1728 c-18 -26 -13 -38 19 -38 28 0 45 37 24 51 -21 13 -26 11
-43 -13z"/>
<path d="M6183 1732 c-11 -9 -30 -36 -42 -59 -14 -28 -30 -45 -46 -49 -13 -3
-27 -15 -31 -26 -9 -29 18 -52 50 -44 21 5 26 12 26 37 0 17 11 45 24 62 24
31 50 87 44 93 -2 1 -13 -5 -25 -14z"/>
<path d="M6230 1635 c-56 -92 -87 -124 -128 -131 -62 -10 -70 -14 -80 -42 -6
-15 -13 -66 -16 -114 -3 -60 -11 -99 -26 -128 l-21 -41 31 16 c44 23 91 94
134 203 29 73 47 105 75 128 22 19 43 51 54 82 29 79 17 93 -23 27z"/>
<path d="M4632 1633 c2 -30 8 -39 25 -41 30 -4 41 33 17 59 -29 32 -46 24 -42
-18z"/>
<path d="M830 1624 c-12 -31 -2 -48 26 -42 17 3 40 58 24 58 -5 0 -15 3 -24 6
-11 4 -19 -2 -26 -22z"/>
<path d="M920 1631 c-21 -40 -13 -51 34 -51 25 0 56 -4 70 -9 18 -7 28 -6 36
4 9 11 3 16 -31 26 -25 8 -44 20 -47 31 -6 24 -48 23 -62 -1z"/>
<path d="M3061 1614 c-27 -11 -42 -12 -64 -4 -17 5 -31 10 -32 10 -2 0 -6 -11
-9 -24 -4 -16 -15 -25 -36 -30 -17 -3 -47 -21 -67 -40 -28 -26 -48 -35 -87
-40 -71 -9 -148 -36 -143 -49 6 -18 45 -20 70 -4 32 20 183 64 247 71 66 8
194 85 184 111 -7 19 -19 18 -63 -1z"/>
<path d="M6473 1573 c-21 -8 -15 -51 10 -73 12 -12 56 -54 97 -95 50 -48 86
-76 107 -80 l31 -6 -24 58 c-13 32 -24 63 -24 70 0 7 -31 31 -69 53 -38 23
-77 50 -86 60 -19 21 -22 22 -42 13z"/>
<path d="M2430 1510 c0 -24 3 -24 40 -5 39 20 38 25 -5 25 -28 0 -35 -4 -35
-20z"/>
<path d="M767 1469 c-50 -42 -49 -59 6 -59 47 0 68 15 86 63 10 26 9 27 -22
27 -21 0 -45 -10 -70 -31z"/>
<path d="M6243 1476 c-13 -17 -23 -43 -23 -62 0 -24 -5 -34 -20 -39 -11 -3
-20 -12 -20 -19 0 -6 -8 -28 -19 -48 -20 -41 -13 -58 26 -58 15 0 27 10 36 28
19 35 49 176 45 204 -3 22 -4 22 -25 -6z"/>
<path d="M4671 1456 c-1 -31 5 -47 26 -68 27 -29 59 -34 113 -19 22 6 17 10
-46 35 -61 24 -73 33 -82 60 l-10 31 -1 -39z"/>
<path d="M2290 1423 c32 -41 102 -85 112 -70 14 22 9 47 -9 47 -10 0 -42 11
-71 25 l-53 25 21 -27z"/>
<path d="M1021 1411 c-26 -36 -26 -41 -2 -41 14 0 20 9 23 35 2 19 3 35 2 35
-2 0 -12 -13 -23 -29z"/>
<path d="M6490 1414 c0 -27 37 -134 55 -158 18 -23 42 -15 55 20 11 28 14 23
-97 144 -11 12 -13 12 -13 -6z"/>
<path d="M626 1403 c-15 -8 -39 -13 -53 -10 -16 3 -28 -2 -38 -17 -23 -31 -18
-43 18 -49 24 -4 38 1 57 18 14 12 38 27 53 32 27 8 28 9 10 25 -16 15 -21 15
-47 1z"/>
<path d="M3549 1400 c-22 -11 -49 -40 -67 -68 -31 -51 -54 -68 -207 -154 -116
-66 -161 -80 -265 -83 -96 -3 -183 -22 -177 -39 2 -7 28 -10 68 -9 35 2 138 4
229 6 91 2 175 4 188 5 16 1 62 42 139 121 82 86 125 123 151 132 35 11 122
83 122 101 0 4 -33 8 -72 8 -52 -1 -84 -6 -109 -20z"/>
<path d="M283 1393 c9 -2 23 -2 30 0 6 3 -1 5 -18 5 -16 0 -22 -2 -12 -5z"/>
<path d="M3791 1302 c-17 -117 -8 -142 51 -142 34 0 49 6 74 31 l33 32 62 -47
c35 -25 74 -46 87 -46 l24 0 -19 32 c-10 18 -42 51 -70 73 -28 22 -56 52 -61
66 -8 20 -23 31 -64 44 -29 10 -65 24 -79 31 l-25 13 -13 -87z"/>
<path d="M4644 1306 c-4 -10 -2 -27 5 -37 8 -15 8 -24 -1 -39 -11 -16 -9 -23
14 -47 15 -15 30 -46 34 -68 5 -30 22 -56 69 -105 34 -36 81 -90 104 -120 69
-89 221 -211 221 -177 0 29 -47 83 -97 110 -28 15 -67 46 -88 68 -31 35 -36
46 -31 72 7 37 -24 83 -77 112 -30 16 -44 37 -91 134 -42 89 -56 112 -62 97z"/>
<path d="M709 1264 c-18 -19 -51 -39 -72 -45 l-39 -10 26 -27 c14 -15 31 -42
37 -60 l11 -32 67 47 c62 44 90 70 91 84 0 4 -20 23 -44 42 l-43 36 -34 -35z"/>
<path d="M6866 1228 c28 -29 58 -65 68 -81 9 -15 37 -40 61 -55 25 -15 59 -47
76 -70 35 -47 45 -50 29 -7 -6 16 -8 41 -5 57 7 29 18 30 83 7 42 -16 64 -11
60 13 -2 14 -15 25 -43 35 -22 7 -60 34 -85 58 -44 44 -47 44 -95 39 -35 -4
-62 -1 -88 10 -20 9 -54 23 -74 32 l-38 16 51 -54z"/>
<path d="M2966 1244 c-11 -8 -34 -14 -52 -14 -17 0 -51 -7 -75 -15 -24 -9 -71
-18 -104 -21 -77 -7 -115 -19 -192 -57 -55 -27 -63 -35 -63 -59 0 -34 4 -34
55 -3 27 17 55 25 86 25 26 0 66 7 89 15 23 8 71 15 107 15 35 0 79 6 97 14
39 16 79 68 74 95 -3 18 -5 18 -22 5z"/>
<path d="M962 1210 c-21 -17 -23 -48 -3 -35 5 2 50 -2 102 -11 87 -14 100 -14
174 2 44 10 98 25 120 35 40 17 39 17 -125 16 -91 -1 -183 2 -205 6 -32 5 -45
3 -63 -13z"/>
<path d="M2320 1212 c0 -5 13 -20 28 -35 31 -30 52 -22 52 20 0 20 -5 23 -40
23 -22 0 -40 -4 -40 -8z"/>
<path d="M880 1121 c0 -34 3 -39 28 -44 16 -3 33 0 41 8 11 11 8 18 -20 44
-19 17 -37 31 -41 31 -5 0 -8 -17 -8 -39z"/>
<path d="M7311 1082 c-22 -7 -10 -30 20 -41 51 -18 69 -14 69 13 0 21 -6 24
-39 28 -22 2 -45 2 -50 0z"/>
</g>
</svg>
